<svg width="322" height="84" fill="none" xmlns="http://www.w3.org/2000/svg"><path d="M125.36 42.168c.992.288 1.752.792 2.28 1.512.544.72.816 1.608.816 2.664 0 1.456-.52 2.6-1.56 3.432-1.024.816-2.456 1.224-4.296 1.224h-7.752V33.912h7.512c1.76 0 3.144.4 4.152 1.2 1.008.784 1.512 1.872 1.512 3.264 0 .896-.24 1.68-.72 2.352-.464.656-1.112 1.136-1.944 1.44zm-7.488-1.056h3.984c2.144 0 3.216-.8 3.216-2.4 0-.8-.264-1.4-.792-1.8-.528-.4-1.336-.6-2.424-.6h-3.984v4.8zm4.392 7.488c1.12 0 1.936-.2 2.448-.6.528-.4.792-1.032.792-1.896 0-.88-.264-1.528-.792-1.944-.512-.416-1.328-.624-2.448-.624h-4.392V48.6h4.392zm15.466-10.008c.464 0 .864.064 1.2.192l-.024 2.736a4.171 4.171 0 00-1.584-.312c-1.024 0-1.808.296-2.352.888-.528.592-.792 1.376-.792 2.352V51h-2.976v-8.688c0-1.28-.064-2.424-.192-3.432h2.808l.24 2.136c.304-.784.784-1.384 1.44-1.8.656-.416 1.4-.624 2.232-.624zm14.228.288V51h-2.952v-1.944a3.971 3.971 0 01-1.584 1.584c-.688.368-1.472.552-2.352.552-1.056 0-1.992-.256-2.808-.768-.816-.512-1.448-1.24-1.896-2.184-.448-.944-.672-2.04-.672-3.288 0-1.248.224-2.352.672-3.312.464-.976 1.104-1.728 1.92-2.256.816-.544 1.744-.816 2.784-.816.88 0 1.664.192 2.352.576a3.817 3.817 0 011.584 1.56V38.88h2.952zm-6.072 9.96c.992 0 1.76-.344 2.304-1.032.544-.688.816-1.656.816-2.904 0-1.28-.272-2.264-.816-2.952-.544-.688-1.32-1.032-2.328-1.032-.992 0-1.768.36-2.328 1.08-.544.704-.816 1.688-.816 2.952 0 1.248.272 2.208.816 2.88.56.672 1.344 1.008 2.352 1.008zm9.34-9.96h2.976V51h-2.976V38.88zm3.144-5.496v2.952h-3.336v-2.952h3.336zm10.05 5.184c2.896 0 4.344 1.664 4.344 4.992V51h-3v-7.296c0-.96-.184-1.656-.552-2.088-.368-.448-.936-.672-1.704-.672-.912 0-1.648.296-2.208.888-.56.576-.84 1.344-.84 2.304V51h-2.976v-8.688c0-1.28-.064-2.424-.192-3.432h2.808l.216 1.992a4.41 4.41 0 011.68-1.704c.72-.4 1.528-.6 2.424-.6zm14.326-4.656h3.096v14.544h7.992V51h-11.088V33.912zm24.736 4.968V51h-2.952v-1.944a3.971 3.971 0 01-1.584 1.584c-.688.368-1.472.552-2.352.552-1.056 0-1.992-.256-2.808-.768-.816-.512-1.448-1.24-1.896-2.184-.448-.944-.672-2.04-.672-3.288 0-1.248.224-2.352.672-3.312.464-.976 1.104-1.728 1.92-2.256.816-.544 1.744-.816 2.784-.816.88 0 1.664.192 2.352.576a3.817 3.817 0 011.584 1.56V38.88h2.952zm-6.072 9.96c.992 0 1.76-.344 2.304-1.032.544-.688.816-1.656.816-2.904 0-1.28-.272-2.264-.816-2.952-.544-.688-1.32-1.032-2.328-1.032-.992 0-1.768.36-2.328 1.08-.544.704-.816 1.688-.816 2.952 0 1.248.272 2.208.816 2.88.56.672 1.344 1.008 2.352 1.008zm16.251-10.272c1.056 0 1.984.264 2.784.792.816.512 1.448 1.24 1.896 2.184.448.944.672 2.04.672 3.288 0 1.248-.232 2.36-.696 3.336-.448.96-1.08 1.704-1.896 2.232-.8.528-1.72.792-2.76.792-.896 0-1.696-.192-2.4-.576a3.78 3.78 0 01-1.56-1.608V51h-2.952V33.336h2.976v7.368a3.817 3.817 0 011.584-1.56c.688-.384 1.472-.576 2.352-.576zm-.792 10.272c.992 0 1.76-.352 2.304-1.056.544-.704.816-1.688.816-2.952 0-1.248-.272-2.208-.816-2.88-.544-.688-1.32-1.032-2.328-1.032-1.008 0-1.784.344-2.328 1.032-.544.688-.816 1.664-.816 2.928 0 1.28.272 2.264.816 2.952.544.672 1.328 1.008 2.352 1.008zm14.259 2.352c-1.232 0-2.32-.256-3.264-.768a5.358 5.358 0 01-2.16-2.184c-.496-.96-.744-2.08-.744-3.36 0-1.28.248-2.392.744-3.336a5.322 5.322 0 012.16-2.208c.944-.512 2.032-.768 3.264-.768 1.216 0 2.288.256 3.216.768a5.174 5.174 0 012.136 2.208c.512.944.768 2.056.768 3.336 0 1.28-.256 2.4-.768 3.36a5.207 5.207 0 01-2.136 2.184c-.928.512-2 .768-3.216.768zm-.024-2.352c1.024 0 1.8-.328 2.328-.984.544-.672.816-1.664.816-2.976 0-1.296-.272-2.28-.816-2.952-.544-.688-1.312-1.032-2.304-1.032-1.008 0-1.784.344-2.328 1.032-.544.672-.816 1.656-.816 2.952 0 1.312.264 2.304.792 2.976.544.656 1.32.984 2.328.984zm15.259-10.248c.464 0 .864.064 1.2.192l-.024 2.736a4.171 4.171 0 00-1.584-.312c-1.024 0-1.808.296-2.352.888-.528.592-.792 1.376-.792 2.352V51h-2.976v-8.688c0-1.28-.064-2.424-.192-3.432h2.808l.24 2.136c.304-.784.784-1.384 1.44-1.8.656-.416 1.4-.624 2.232-.624zm14.228.288V51h-2.952v-1.944a3.971 3.971 0 01-1.584 1.584c-.688.368-1.472.552-2.352.552-1.056 0-1.992-.256-2.808-.768-.816-.512-1.448-1.24-1.896-2.184-.448-.944-.672-2.04-.672-3.288 0-1.248.224-2.352.672-3.312.464-.976 1.104-1.728 1.92-2.256.816-.544 1.744-.816 2.784-.816.88 0 1.664.192 2.352.576a3.817 3.817 0 011.584 1.56V38.88h2.952zm-6.072 9.96c.992 0 1.76-.344 2.304-1.032.544-.688.816-1.656.816-2.904 0-1.28-.272-2.264-.816-2.952-.544-.688-1.32-1.032-2.328-1.032-.992 0-1.768.36-2.328 1.08-.544.704-.816 1.688-.816 2.952 0 1.248.272 2.208.816 2.88.56.672 1.344 1.008 2.352 1.008zm13.156-7.704v5.424c0 1.424.664 2.136 1.992 2.136.368 0 .768-.064 1.2-.192v2.376c-.528.192-1.168.288-1.92.288-1.376 0-2.432-.384-3.168-1.152-.736-.768-1.104-1.872-1.104-3.312v-5.568h-2.328V38.88h2.328v-2.952l3-1.008v3.96h3.216v2.256h-3.216zm10.773 10.056c-1.232 0-2.32-.256-3.264-.768a5.358 5.358 0 01-2.16-2.184c-.496-.96-.744-2.08-.744-3.36 0-1.28.248-2.392.744-3.336a5.322 5.322 0 012.16-2.208c.944-.512 2.032-.768 3.264-.768 1.216 0 2.288.256 3.216.768a5.174 5.174 0 012.136 2.208c.512.944.768 2.056.768 3.336 0 1.28-.256 2.4-.768 3.36a5.207 5.207 0 01-2.136 2.184c-.928.512-2 .768-3.216.768zm-.024-2.352c1.024 0 1.8-.328 2.328-.984.544-.672.816-1.664.816-2.976 0-1.296-.272-2.28-.816-2.952-.544-.688-1.312-1.032-2.304-1.032-1.008 0-1.784.344-2.328 1.032-.544.672-.816 1.656-.816 2.952 0 1.312.264 2.304.792 2.976.544.656 1.32.984 2.328.984zm15.259-10.248c.464 0 .864.064 1.2.192l-.024 2.736a4.171 4.171 0 00-1.584-.312c-1.024 0-1.808.296-2.352.888-.528.592-.792 1.376-.792 2.352V51h-2.976v-8.688c0-1.28-.064-2.424-.192-3.432h2.808l.24 2.136c.304-.784.784-1.384 1.44-1.8.656-.416 1.4-.624 2.232-.624zm15.069.288l-5.64 12.936c-.64 1.504-1.456 2.6-2.448 3.288-.992.688-2.216 1.144-3.672 1.368l-.672-2.304c1.136-.256 1.984-.584 2.544-.984.576-.384 1.04-.96 1.392-1.728l.384-.888-5.04-11.688h3.144l3.48 8.712 3.552-8.712h2.976z" fill="#233348"/><circle cx="42" cy="42" r="42" fill="url(#paint0_linear)"/><g clip-path="url(#clip0)"><path d="M42.5 74c3.4 0 6.587-1.539 9.332-4.226a25.44 25.44 0 016.49-4.616c7.656-3.8 12.698-10.281 12.698-17.637 0-5.228-2.546-10.012-6.767-13.708-2.794-2.446-4.938-5.535-6.322-8.98C54.58 16.484 48.92 11 42.502 11c-6.42 0-12.08 5.485-15.432 13.832-1.384 3.446-3.527 6.535-6.321 8.981-4.221 3.696-6.768 8.48-6.768 13.708 0 7.356 5.042 13.836 12.698 17.637a25.442 25.442 0 016.49 4.616C35.914 72.46 39.1 74 42.5 74z" fill="url(#paint1_linear)"/><path opacity=".1" d="M29.941 64.181c0-.641-.387-1.191-.94-1.43v-5.78l4.065 4.066a1.557 1.557 0 10.87-.87L26.3 52.531v-4.618h3.56a1.23 1.23 0 001.231-1.23v-.089l4.145 3.306c-.018.014-.036.026-.052.042l-2.11 2.11a1.557 1.557 0 10.845.895l2.135-2.135a.61.61 0 00.116-.167l2.011 1.604a2.46 2.46 0 003.07 0l1.476-1.178v8.727a1.556 1.556 0 101.23 0v-8.95a.613.613 0 00-.294-.523l4.677-3.731v.088c0 .628.47 1.145 1.078 1.22a.609.609 0 00-.03.181v6.178a1.557 1.557 0 101.23 0v-6.178a.608.608 0 00-.026-.17h4.51a.608.608 0 00-.027.17v11.715a1.556 1.556 0 101.23 0V48.083a.608.608 0 00-.027-.17h.208c.68 0 1.23-.551 1.23-1.23v-3.407a5.675 5.675 0 002.861-.857v13.19a1.556 1.556 0 101.231 0V42.048a.612.612 0 00-.2-.45 5.676 5.676 0 00-2.345-9.418 7.711 7.711 0 00-9.347-8.725 7.711 7.711 0 00-13.692-.421 8.145 8.145 0 00-10.504 5.818 7.241 7.241 0 00-3.8 2.004 7.248 7.248 0 00-1.893 3.302 4.97 4.97 0 00-1.572 9.017v12.434a1.556 1.556 0 101.23 0v-11.86a4.965 4.965 0 002.03.185v2.748c0 .68.552 1.23 1.231 1.23h2.125v4.874c0 .163.064.32.18.435l2.543 2.543a.609.609 0 00-.024.162v6.825a1.556 1.556 0 102.171 1.43z" fill="#008FCF"/><path d="M51.663 46.683v-4.455h9.376v4.455c0 .68-.551 1.23-1.23 1.23h-6.916c-.68 0-1.23-.55-1.23-1.23zm-26.625 0v-4.455h9.376v4.455c0 .68-.551 1.23-1.23 1.23h-6.916c-.68 0-1.23-.55-1.23-1.23z" fill="#fff"/><path d="M41.504 52.249l-12.381-9.875h27.83l-12.38 9.875a2.46 2.46 0 01-3.069 0z" fill="#63B8F2"/><path d="M41.504 49.377l-8.78-7.003h20.628l-8.78 7.003a2.46 2.46 0 01-3.068 0z" fill="#fff"/><path d="M48.757 43.25a8.337 8.337 0 004.722 1.458 8.34 8.34 0 005.258-1.858 5.678 5.678 0 103.847-10.669 7.711 7.711 0 00-9.347-8.725 7.711 7.711 0 00-13.692-.422 8.144 8.144 0 00-10.504 5.817 7.24 7.24 0 00-3.799 2.006 7.25 7.25 0 00-1.894 3.301 4.97 4.97 0 001.12 9.81 4.943 4.943 0 003.063-1.059 6.335 6.335 0 004.428 1.799c1.777 0 3.384-.73 4.537-1.907a11.997 11.997 0 006.509 1.907 12 12 0 005.752-1.458z" fill="#fff"/><path d="M24.294 32.024a7.254 7.254 0 00-.945 2.134 4.968 4.968 0 00.945 9.805V32.025zm3.692-2.89V43.31a6.326 6.326 0 003.974 1.398c.07 0 .14-.003.21-.006V24.17a8.151 8.151 0 00-3.128 4.682 7.28 7.28 0 00-1.056.282zm29.738 3.536H48.62a.615.615 0 01-.615-.615V19.269a7.726 7.726 0 015.233 4.187 7.738 7.738 0 011.732-.198 7.67 7.67 0 013.37.774v8.023c0 .34-.276.615-.616.615zm-15.15 14.434a2.922 2.922 0 10.935-5.77 2.922 2.922 0 00-.935 5.77z" fill="#63B8F2"/><path d="M32.322 62.895v-5.924l5.077 5.077a.615.615 0 10.87-.87l-8.646-8.647v-4.003h3.56c.663 0 1.243-.351 1.57-.877l3.362 2.682-2.547 2.547a.613.613 0 000 .87c.24.24.63.24.87 0l2.645-2.645 2.037 1.625a3.06 3.06 0 003.836 0l1.093-.872v8.084a.615.615 0 101.231 0v-9.066l4.045-3.225c.295.476.8.81 1.385.868v5.886a.615.615 0 101.23 0v-5.877h4.457V60.31a.615.615 0 101.23 0V48.528h.181a1.848 1.848 0 001.846-1.846v-2.836a6.256 6.256 0 002.245-.714v12.62a.615.615 0 101.23 0V42.261a6.299 6.299 0 001.296-1.652 6.254 6.254 0 00.509-4.79 6.281 6.281 0 00-3.677-4.051 8.33 8.33 0 00.039-.799c0-4.591-3.735-8.326-8.326-8.326-.466 0-.935.04-1.398.119a8.327 8.327 0 00-5.04-3.992.615.615 0 00-.332 1.185 7.1 7.1 0 014.483 3.767c.124.26.412.398.692.334a7.136 7.136 0 011.595-.183 7.104 7.104 0 017.007 8.212c-.047.3.134.592.425.683a5.055 5.055 0 013.352 3.4 5.027 5.027 0 01-.41 3.853 5.03 5.03 0 01-3.013 2.435c-1.12.33-2.28.27-3.359-.175a.616.616 0 00-.62.09 7.673 7.673 0 01-4.873 1.721 7.718 7.718 0 01-4.375-1.35.616.616 0 00-.641-.033 11.4 11.4 0 01-1.954.835 3.544 3.544 0 00-3.471-2.854 3.543 3.543 0 00-3.475 2.875 11.383 11.383 0 01-2.734-1.281.615.615 0 00-.772.086 5.699 5.699 0 01-4.098 1.722 5.71 5.71 0 01-4-1.624.615.615 0 00-.808-.043 4.309 4.309 0 01-2.683.928 4.359 4.359 0 01-4.354-4.354 4.33 4.33 0 013.372-4.241.615.615 0 00.458-.444 6.66 6.66 0 015.21-4.858.615.615 0 00.486-.46 7.522 7.522 0 011.91-3.473.615.615 0 10-.885-.856 8.764 8.764 0 00-2.122 3.662 7.895 7.895 0 00-5.69 5.324A5.553 5.553 0 0018.883 39c0 2.104 1.17 3.94 2.893 4.89v11.863a.615.615 0 101.23 0V44.388c.453.123.927.19 1.416.194v2.1c0 1.018.828 1.846 1.846 1.846h2.124v4.258c0 .163.065.32.18.435l2.544 2.544a.607.607 0 00-.024.161v6.97a.615.615 0 101.23 0zm26.52-19.348a6.301 6.301 0 001.582.326v2.81a.615.615 0 01-.616.614h-6.915a.614.614 0 01-.584-.431l1.983-1.582a9.023 9.023 0 004.55-1.737zM43.038 41.92a2.31 2.31 0 012.307 2.308 2.31 2.31 0 01-2.307 2.307 2.31 2.31 0 01-2.307-2.307 2.31 2.31 0 012.307-2.308zm-6.46 1.653a12.57 12.57 0 002.977 1.273 3.543 3.543 0 003.483 2.92c1.747 0 3.2-1.273 3.486-2.94a12.616 12.616 0 002.199-.864 8.924 8.924 0 003.636 1.29l-1.123.896-7.047 5.62a1.835 1.835 0 01-2.302 0l-8.316-6.632a6.899 6.899 0 003.006-1.563zm-10.31 3.724a.616.616 0 01-.615-.615v-2.224a5.503 5.503 0 001.833-.761 6.925 6.925 0 004.343 1.623l1.938 1.546a.614.614 0 01-.584.431h-6.915z" fill="#008FCF"/><path d="M40.083 23.334a7.151 7.151 0 014.267-3.376.615.615 0 10-.335-1.184 8.392 8.392 0 00-4.75 3.532 8.738 8.738 0 00-4.748.038.615.615 0 00.343 1.181 7.539 7.539 0 014.49.093.615.615 0 00.733-.284z" fill="#008FCF"/><path d="M41.934 44.702a1.203 1.203 0 102.222-.921 1.203 1.203 0 00-2.222.921zm8.643-14.055a1.202 1.202 0 10.385-2.373 1.202 1.202 0 00-.385 2.373z" fill="#fff"/><path d="M43.529 32.33c0-.174.072-.346.214-.468a3.153 3.153 0 000-4.793.615.615 0 01.801-.934 4.382 4.382 0 010 6.66.615.615 0 01-1.015-.466zm8.143 9.843c0-.173.074-.345.216-.467a1.525 1.525 0 000-2.319.616.616 0 01.8-.934 2.755 2.755 0 010 4.187.615.615 0 01-1.016-.467z" fill="#008FCF"/><path d="M52.371 41.286a.617.617 0 01.718-.608 2.785 2.785 0 003.25-2.742 2.785 2.785 0 00-3.25-2.742.615.615 0 11-.205-1.214 4.017 4.017 0 014.685 3.956 4.017 4.017 0 01-4.685 3.955.615.615 0 01-.513-.605zm-18.439-6.289c0-.305.226-.569.536-.61a3.043 3.043 0 002.637-3.01 3.043 3.043 0 00-2.637-3.01.615.615 0 11.16-1.22 4.277 4.277 0 013.707 4.23 4.277 4.277 0 01-3.707 4.23.615.615 0 01-.696-.61z" fill="#008FCF"/><path d="M31.471 33.194a.615.615 0 01.86-.564 4.266 4.266 0 010 7.826.615.615 0 01-.49-1.13 3.036 3.036 0 000-5.568.615.615 0 01-.37-.564zm10.265.866a.754.754 0 101.509 0 .754.754 0 00-1.51 0zm5.514 5.614a.754.754 0 110-1.508.754.754 0 010 1.508zm13.034-1.318a.754.754 0 110-1.509.754.754 0 010 1.509zm-33.107-1.059a.754.754 0 110-1.509.754.754 0 010 1.509z" fill="#008FCF"/><path d="M58.637 62.752a1.556 1.556 0 10.716-3.03 1.556 1.556 0 00-.716 3.03z" fill="#63B8F2"/><path d="M59.012 61.985a.756.756 0 110-1.513.756.756 0 010 1.513z" fill="#fff"/><path d="M51.769 55.691a1.556 1.556 0 103.113 0 1.556 1.556 0 00-3.113 0z" fill="#63B8F2"/><path d="M53.325 56.448a.756.756 0 110-1.513.756.756 0 010 1.513z" fill="#fff"/><path d="M45.562 62.32a1.556 1.556 0 102.2-2.2 1.556 1.556 0 00-2.2 2.2z" fill="#63B8F2"/><path d="M46.664 61.985a.756.756 0 110-1.513.756.756 0 010 1.513z" fill="#fff"/><path d="M30.28 64.797a1.557 1.557 0 102.877-1.192 1.557 1.557 0 00-2.876 1.192z" fill="#63B8F2"/><path d="M31.707 64.938a.756.756 0 110-1.513.756.756 0 010 1.513z" fill="#fff"/><path d="M37.454 63.13a1.556 1.556 0 10.716-3.028 1.556 1.556 0 00-.716 3.029z" fill="#63B8F2"/><path d="M37.834 62.37a.756.756 0 110-1.513.756.756 0 010 1.512z" fill="#fff"/><path d="M34.224 53.481a1.557 1.557 0 103.113 0 1.557 1.557 0 00-3.113 0z" fill="#63B8F2"/><path d="M35.023 53.481a.756.756 0 101.513 0 .756.756 0 00-1.513 0z" fill="#fff"/><path d="M20.835 57.038a1.557 1.557 0 103.113 0 1.557 1.557 0 00-3.113 0z" fill="#63B8F2"/><path d="M22.39 57.795a.756.756 0 11.001-1.513.756.756 0 010 1.513z" fill="#fff"/><path d="M62.958 57.038a1.557 1.557 0 103.113 0 1.557 1.557 0 00-3.113 0z" fill="#63B8F2"/><path d="M64.514 57.795a.756.756 0 110-1.513.756.756 0 010 1.513z" fill="#fff"/><path d="M61.45 20.466c0-.158.06-.315.18-.435l1.39-1.39a.616.616 0 01.87 0l1.39 1.39c.24.24.24.63-.001.87l-1.39 1.39c-.24.24-.63.24-.87 0L61.63 20.9a.613.613 0 01-.18-.435zm2.005-.52l-.52.52.52.52.519-.52-.52-.52zm1.975 6.302c0-.157.06-.314.18-.434l1.39-1.39a.615.615 0 01.87 0l1.39 1.39c.24.24.24.63 0 .87l-1.39 1.389c-.24.24-.63.24-.87 0l-1.39-1.39a.613.613 0 01-.18-.434zm2.005-.519l-.52.52.52.519.52-.52-.52-.519zM17.897 64.938a1.601 1.601 0 111.602 1.601 1.603 1.603 0 01-1.602-1.601zm1.972 0a.371.371 0 10-.742 0 .371.371 0 00.742 0zm1.821-41.393c0-.883.719-1.601 1.601-1.601.883 0 1.602.718 1.602 1.6 0 .884-.719 1.602-1.602 1.602a1.603 1.603 0 01-1.6-1.601zm1.972 0a.371.371 0 10-.742 0 .371.371 0 00.742 0zM65.478 63.54c0-.883.718-1.602 1.601-1.602s1.601.719 1.601 1.602c0 .882-.718 1.6-1.6 1.6a1.603 1.603 0 01-1.602-1.6zm1.972 0a.371.371 0 10-.742 0 .371.371 0 00.742 0z" fill="#63B8F2"/></g><defs><linearGradient id="paint0_linear" x1="42" y1="0" x2="42" y2="84" gradientUnits="userSpaceOnUse"><stop stop-color="#008FCF"/><stop offset="1" stop-color="#B9E4EF"/></linearGradient><linearGradient id="paint1_linear" x1="23.5" y1="4" x2="60" y2="77.5" gradientUnits="userSpaceOnUse"><stop stop-color="#008FCF"/><stop offset="1" stop-color="#B9E4EF"/></linearGradient><clipPath id="clip0"><path fill="#fff" transform="rotate(90 31.5 42.5)" d="M0 0h63v63H0z"/></clipPath></defs></svg>